<?xml version="1.0" encoding="utf-8"?>
<!-- Generator: Adobe Illustrator 16.0.0, SVG Export Plug-In . SVG Version: 6.00 Build 0)  -->
<!DOCTYPE svg PUBLIC "-//W3C//DTD SVG 1.1//EN" "http://www.w3.org/Graphics/SVG/1.1/DTD/svg11.dtd">
<svg version="1.1" id="Layer_1" xmlns="http://www.w3.org/2000/svg" xmlns:xlink="http://www.w3.org/1999/xlink" x="0px" y="0px"
	 width="58.167px" height="20px" viewBox="0 0 58.167 20" enable-background="new 0 0 58.167 20" xml:space="preserve">
<g transform="scale(0.01953125 0.01953125)">
	<path fill="#FFFFFF" d="M788.51,460.807H133.125c-28.275,0-30.725,22.9-30.725,51.201c0,28.299,2.449,51.199,30.725,51.199H788.51
		c28.25,0,30.699-22.9,30.699-51.199C819.209,483.707,816.76,460.807,788.51,460.807z M788.51,665.609H133.125
		c-28.275,0-30.725,22.9-30.725,51.201c0,28.299,2.449,51.199,30.725,51.199H788.51c28.25,0,30.699-22.9,30.699-51.199
		C819.209,688.51,816.76,665.609,788.51,665.609z M133.125,358.404H788.51c28.25,0,30.699-22.9,30.699-51.199
		c0-28.301-2.449-51.201-30.699-51.201H133.125c-28.275,0-30.725,22.9-30.725,51.201C102.4,335.504,104.85,358.404,133.125,358.404z
		"/>
</g>
<g>
	<path fill="#FFFFFF" d="M29.529,15h-1.142V8.424c0-0.52,0.032-1.155,0.096-1.907h-0.027c-0.109,0.442-0.207,0.759-0.294,0.95
		L24.813,15h-0.561l-3.343-7.479c-0.096-0.219-0.193-0.554-0.294-1.005h-0.027c0.036,0.392,0.055,1.032,0.055,1.921V15h-1.107V5.197
		h1.518l3.008,6.836c0.232,0.523,0.383,0.916,0.451,1.176h0.041c0.196-0.537,0.354-0.939,0.472-1.203l3.069-6.809h1.436V15H29.529z"
		/>
	<path fill="#FFFFFF" d="M37.162,15h-5.195V5.197h4.978v1.039h-3.827v3.261h3.541v1.032h-3.541v3.432h4.047V15H37.162z"/>
	<path fill="#FFFFFF" d="M46.811,15h-1.408l-5.045-7.813c-0.128-0.196-0.231-0.401-0.313-0.615h-0.041
		c0.035,0.209,0.055,0.659,0.055,1.347V15H38.91V5.197h1.49l4.908,7.689c0.205,0.319,0.337,0.538,0.396,0.656h0.026
		c-0.046-0.282-0.067-0.763-0.067-1.441V5.197h1.147V15z"/>
	<path fill="#FFFFFF" d="M56.412,11.035c0,2.752-1.242,4.129-3.726,4.129c-2.379,0-3.567-1.324-3.567-3.973V5.197h1.147v5.92
		c0,2.01,0.848,3.015,2.543,3.015c1.636,0,2.454-0.971,2.454-2.912V5.197h1.148V11.035L56.412,11.035z"/>
</g>
<g>
	<path d="M25.397-39.667h-5.195v-9.803h4.977v1.039h-3.828v3.261h3.541v1.032h-3.541v3.432h4.047L25.397-39.667L25.397-39.667z"/>
	<path d="M28.143-40.678h-0.027v1.012h-1.121V-50.03h1.121v4.594h0.027c0.552-0.93,1.358-1.395,2.42-1.395
		c0.897,0,1.601,0.313,2.108,0.94c0.509,0.626,0.763,1.466,0.763,2.519c0,1.171-0.285,2.109-0.854,2.813
		c-0.568,0.704-1.349,1.056-2.338,1.056C29.316-39.502,28.616-39.895,28.143-40.678z M28.115-43.501v0.978
		c0,0.579,0.188,1.07,0.564,1.473c0.375,0.403,0.853,0.605,1.432,0.605c0.68,0,1.211-0.26,1.596-0.779
		c0.387-0.52,0.578-1.242,0.578-2.167c0-0.779-0.18-1.39-0.539-1.832c-0.361-0.442-0.849-0.663-1.463-0.663
		c-0.652,0-1.177,0.227-1.573,0.68S28.115-44.185,28.115-43.501z"/>
	<path d="M38.734-45.532c-0.195-0.15-0.479-0.226-0.848-0.226c-0.479,0-0.879,0.226-1.199,0.677
		c-0.322,0.451-0.482,1.066-0.482,1.846v3.568h-1.121v-7h1.121v1.442h0.027c0.159-0.492,0.402-0.876,0.73-1.152
		s0.695-0.414,1.102-0.414c0.292,0,0.516,0.032,0.67,0.096V-45.532z"/>
	<path d="M40.386-48.444c-0.2,0-0.371-0.068-0.514-0.205c-0.142-0.137-0.211-0.31-0.211-0.52s0.069-0.384,0.211-0.523
		c0.143-0.139,0.313-0.208,0.514-0.208c0.205,0,0.379,0.069,0.523,0.208c0.143,0.139,0.215,0.313,0.215,0.523
		c0,0.201-0.072,0.372-0.215,0.513C40.765-48.515,40.591-48.444,40.386-48.444z M40.933-39.667h-1.121v-7h1.121V-39.667z"/>
	<path d="M53.001-39.667H51.88v-4.02c0-0.775-0.118-1.335-0.358-1.682c-0.237-0.346-0.642-0.52-1.206-0.52
		c-0.479,0-0.886,0.219-1.22,0.656c-0.337,0.438-0.503,0.961-0.503,1.572v3.992h-1.121v-4.156c0-1.376-0.531-2.064-1.594-2.064
		c-0.491,0-0.896,0.206-1.217,0.619s-0.479,0.949-0.479,1.61v3.992h-1.121v-7h1.121v1.107h0.027
		c0.496-0.848,1.222-1.271,2.174-1.271c0.479,0,0.896,0.133,1.25,0.4c0.355,0.267,0.601,0.616,0.732,1.049
		c0.52-0.966,1.293-1.449,2.323-1.449c1.54,0,2.312,0.95,2.312,2.851V-39.667L53.001-39.667z"/>
	<path d="M59.992-39.667h-1.121v-1.094h-0.027c-0.487,0.838-1.205,1.258-2.153,1.258c-0.696,0-1.243-0.185-1.637-0.554
		c-0.396-0.369-0.593-0.859-0.593-1.47c0-1.308,0.771-2.069,2.312-2.283l2.099-0.294c0-1.189-0.479-1.784-1.441-1.784
		c-0.844,0-1.604,0.287-2.283,0.861v-1.148c0.688-0.438,1.48-0.656,2.379-0.656c1.646,0,2.469,0.871,2.469,2.611v4.553H59.992z
		 M58.871-43.208l-1.688,0.232c-0.521,0.073-0.911,0.202-1.177,0.386c-0.264,0.184-0.396,0.512-0.396,0.981
		c0,0.342,0.122,0.621,0.365,0.837s0.569,0.325,0.976,0.325c0.555,0,1.016-0.195,1.377-0.584c0.362-0.39,0.543-0.883,0.543-1.479
		V-43.208L58.871-43.208z"/>
</g>
</svg>
